<svg width="40" height="40" viewBox="0 0 40 40" fill="none" xmlns="http://www.w3.org/2000/svg">
<g clip-path="url(#clip0_122_1444)">
<path d="M17.6953 0.554688C11.8125 1.25781 6.50781 4.64062 3.35938 9.6875C1.94531 11.9531 0.945312 14.7812 0.585938 17.5234C0.429688 18.7422 0.429688 21.2578 0.585938 22.4766C1.15625 26.8203 3.07812 30.7422 6.17188 33.8281C8.69531 36.3594 11.8594 38.1562 15.25 38.9844C17.0703 39.4297 17.6641 39.4922 20.0391 39.4922C21.9766 39.4922 22.3438 39.4688 23.2266 39.3125C25.3359 38.9297 27.1406 38.3281 28.9453 37.3906C30.8828 36.3906 32.3125 35.3516 33.8281 33.8281C35.4219 32.2422 36.4453 30.8203 37.5078 28.7109C38.5078 26.7266 39.1172 24.7266 39.4141 22.4766C39.5703 21.2578 39.5703 18.7422 39.4141 17.5234C38.8438 13.1797 36.9141 9.25781 33.8281 6.17188C32.1953 4.53125 30.6094 3.40625 28.4766 2.375C26.7344 1.53125 25.2656 1.0625 23.2266 0.695312C22.4844 0.5625 21.9219 0.523438 20.3125 0.5C19.2188 0.492188 18.0391 0.515625 17.6953 0.554688ZM26.9609 8.375C29.8984 9.17969 31.5156 11.0781 31.9453 14.2422C32.0625 15.0703 32.0625 24.9297 31.9453 25.7578C31.5156 28.9219 29.9062 30.8125 26.9609 31.625L26.2109 31.8359H20H13.7891L13.0391 31.625C10.1094 30.8203 8.44531 28.875 8.04688 25.7812C7.95312 25.0156 7.95312 14.9844 8.04688 14.2188C8.48438 10.8828 10.4062 8.84375 13.7031 8.23438C14.1328 8.15625 15.6094 8.14062 20.2344 8.14844L26.2109 8.16406L26.9609 8.375Z" fill="url(#paint0_linear_122_1444)"/>
<path d="M14.8828 10.3125C12.7344 10.4531 11.4062 11.2188 10.6719 12.75C10.1172 13.9297 10.1172 13.9219 10.1172 20.0781C10.125 25.5313 10.125 25.5938 10.2969 26.2109C10.5469 27.1172 10.8906 27.75 11.4219 28.3281C11.9375 28.875 12.6406 29.2734 13.4766 29.4922C14.3047 29.7109 16.4844 29.7813 21.0938 29.7422C26.0781 29.7031 26.3516 29.6797 27.4688 29.1406C28.6094 28.5938 29.4062 27.5078 29.7422 26.0547C29.875 25.4766 29.8828 24.9922 29.8828 20C29.8828 15.0078 29.875 14.5234 29.7422 13.9453C29.4062 12.4922 28.6094 11.4063 27.4688 10.8594C26.3281 10.3125 26.125 10.2969 20.7031 10.2734C18.0625 10.2578 15.4453 10.2813 14.8828 10.3125ZM26.9922 12.6484C27.1172 12.7188 27.3047 12.9063 27.4062 13.0547C27.5625 13.2734 27.5859 13.3984 27.5625 13.7734C27.5312 14.1328 27.4844 14.2656 27.2969 14.4609C26.8672 14.9219 26.375 15.0313 25.8594 14.7656C24.8438 14.25 24.9844 12.8359 26.0859 12.4922C26.3438 12.4141 26.6875 12.4766 26.9922 12.6484ZM21.5234 13.875C23.9922 14.5391 25.7812 16.4766 26.2109 18.9453C26.3594 19.8047 26.3594 20.1953 26.2109 21.0547C25.7812 23.5 24.0391 25.4141 21.5938 26.1094C20.7891 26.3359 19.2891 26.3516 18.5156 26.1406C15.9766 25.4453 14.2266 23.5391 13.7812 21.0078C13.1797 17.5625 15.6016 14.2969 19.1797 13.7188C19.6172 13.6563 21.0469 13.7422 21.5234 13.875Z" fill="url(#paint1_linear_122_1444)"/>
<path d="M19.1797 15.9375C18.2188 16.1328 17.3125 16.7109 16.6953 17.5156C15.6016 18.9609 15.5938 21.0078 16.6797 22.4609C18.0547 24.3047 20.6719 24.6797 22.4844 23.3047C24.6797 21.625 24.6797 18.375 22.4844 16.6953C21.5547 15.9922 20.3203 15.7109 19.1797 15.9375Z" fill="url(#paint2_linear_122_1444)"/>
</g>
<defs>
<linearGradient id="paint0_linear_122_1444" x1="20" y1="39.4922" x2="20" y2="0.498505" gradientUnits="userSpaceOnUse">
<stop offset="0.197917" stop-color="#23B55C"/>
<stop offset="1" stop-color="#5BBF9B"/>
</linearGradient>
<linearGradient id="paint1_linear_122_1444" x1="20" y1="29.7524" x2="20" y2="10.2685" gradientUnits="userSpaceOnUse">
<stop offset="0.197917" stop-color="#23B55C"/>
<stop offset="1" stop-color="#5BBF9B"/>
</linearGradient>
<linearGradient id="paint2_linear_122_1444" x1="20.0005" y1="24.1329" x2="20.0005" y2="15.8607" gradientUnits="userSpaceOnUse">
<stop offset="0.197917" stop-color="#23B55C"/>
<stop offset="1" stop-color="#5BBF9B"/>
</linearGradient>
<clipPath id="clip0_122_1444">
<rect width="40" height="40" fill="white"/>
</clipPath>
</defs>
</svg>
