<svg width="30" height="36" viewBox="0 0 30 36" fill="none" xmlns="http://www.w3.org/2000/svg">
<path d="M12.8515 0.0984344C10.4686 0.449997 8.5077 1.13906 6.60145 2.28516C3.35145 4.23984 1.09364 7.27734 0.265514 10.793C0.0155136 11.8336 -0.0782364 13.9289 0.0702011 15.0258C0.499889 18.1547 2.32801 21.9656 5.35145 26.0227C6.71864 27.8508 8.87489 30.3539 10.6093 32.1328C11.5858 33.1242 13.6249 35.093 14.164 35.5641C14.6249 35.9578 14.703 36 15.0155 36C15.3436 36 15.3671 35.9859 16.3827 35.0578C20.1796 31.5633 23.7733 27.4641 26.0311 24.0539C28.1874 20.7984 29.4608 17.8945 29.8905 15.2578C30.078 14.0625 30.0077 11.9461 29.7343 10.793C28.4765 5.44219 23.9608 1.37812 18.0077 0.239059C17.1874 0.077343 16.8436 0.0492172 15.2733 0.0351562C14.039 0.014061 13.2811 0.0351562 12.8515 0.0984344ZM16.7186 7.55859C17.4921 7.73437 18.7186 8.29687 19.3358 8.76797C22.3983 11.0883 22.6483 15.1664 19.8905 17.775C17.8749 19.6805 14.4843 20.1797 11.8905 18.9492C10.1015 18.0984 8.8202 16.6289 8.35926 14.9062C8.14833 14.0906 8.14833 12.9094 8.35926 12.0938C8.6952 10.8422 9.5702 9.58359 10.6874 8.74687C11.2811 8.30391 12.5311 7.72734 13.2811 7.55156C14.3046 7.3125 15.6718 7.3125 16.7186 7.55859Z" fill="url(#paint0_linear_111_31)"/>
<defs>
<linearGradient id="paint0_linear_111_31" x1="14.9974" y1="36" x2="14.9974" y2="0.0272446" gradientUnits="userSpaceOnUse">
<stop offset="0.21875" stop-color="#23B55C"/>
<stop offset="1" stop-color="#5BBF9B"/>
</linearGradient>
</defs>
</svg>
