<svg width="26" height="25" viewBox="0 0 26 25" fill="none" xmlns="http://www.w3.org/2000/svg">
<g clip-path="url(#clip0_111_37)">
<path d="M1.43711 0.830755C0.914062 0.98522 0.401172 1.4018 0.1625 1.87923L0.0253906 2.14603L0.0304687 3.31621C0.0304687 4.51915 0.0914062 5.17913 0.309766 6.35867C1.45742 12.6495 5.48945 18.1353 11.4512 21.5242C12.3195 22.0156 14.102 22.8441 15.0312 23.1811C17.8598 24.2109 21.0031 24.7726 23.6641 24.7211C24.4918 24.707 24.507 24.707 24.8371 24.5573C25.2434 24.37 25.6445 23.9956 25.8375 23.6211L25.9746 23.3496V20.6114V17.8732L25.8375 17.6017C25.5836 17.1009 25.0199 16.6609 24.4766 16.5439C24.3496 16.5158 23.8012 16.4737 23.2578 16.4456C21.8461 16.3754 20.7594 16.2069 19.6066 15.8745C18.977 15.6967 18.5098 15.6592 18.0781 15.7622C17.6566 15.8605 17.616 15.8886 15.8031 17.1571L14.2848 18.2149L13.7059 17.9107C10.923 16.4409 9.03398 14.7137 7.45977 12.1908L7.06367 11.5683L8.21641 10.1594C8.85117 9.38709 9.41992 8.68966 9.48594 8.61009C9.65859 8.39478 9.80078 7.91735 9.80078 7.55693C9.80078 7.33226 9.75 7.07482 9.62305 6.68164C9.22695 5.45061 9.05937 4.50511 8.98828 3.15239C8.94766 2.28177 8.91211 2.10859 8.69375 1.72009C8.54141 1.44393 8.14023 1.10692 7.76953 0.938412L7.43945 0.78863L4.54492 0.779268C2.24961 0.769907 1.60469 0.783949 1.43711 0.830755Z" fill="#23B55C"/>
</g>
<defs>
<clipPath id="clip0_111_37">
<rect width="26" height="23.9652" fill="white" transform="translate(0 0.765228)"/>
</clipPath>
</defs>
</svg>
