<svg width="40" height="40" viewBox="0 0 40 40" fill="none" xmlns="http://www.w3.org/2000/svg">
<g clip-path="url(#clip0_111_45)">
<path d="M17.4219 0.125C9.43751 1.14844 2.8047 6.92969 0.664074 14.7266C0.203136 16.4219 0.0625115 17.4141 0.023449 19.4375C-0.023426 21.4297 0.0468865 22.4141 0.359386 23.9531C1.39064 29.1719 4.53126 33.8125 9.02345 36.7656C11.6094 38.4609 14.4453 39.5 17.5781 39.8906C18.7656 40.0391 21.2656 40.0312 22.5 39.8828C28.3438 39.1562 33.5625 35.8828 36.8203 30.8984C38.4609 28.3906 39.5078 25.5078 39.8828 22.5C40.0391 21.2344 40.0391 18.7656 39.8828 17.5C39.1641 11.6875 35.9063 6.47656 30.9766 3.23438C28.4063 1.54688 25.5469 0.5 22.5 0.117188C21.3047 -0.03125 18.5859 -0.0234375 17.4219 0.125ZM29.5234 12.3438C29.7891 12.6172 29.8828 12.9844 29.8125 13.4609C29.6484 14.4688 26.4609 29.3047 26.3516 29.5547C26.1875 29.9297 25.8359 30.2344 25.5625 30.2344C25.1719 30.2266 24.7266 29.9453 22.3203 28.1719C20.9922 27.1953 19.8594 26.375 19.7969 26.3516C19.7266 26.3281 19.1953 26.7891 18.3516 27.5859C16.9453 28.9375 16.9141 28.9609 16.5625 29.0625C16.3516 29.125 16.3438 29.1172 16.375 28.8359C16.3906 28.6797 16.4609 27.7266 16.5234 26.7187C16.5859 25.7109 16.6641 24.7031 16.6875 24.4766L16.7266 24.0703L21.4141 19.8438C24.3984 17.1406 26.0938 15.5625 26.0938 15.4688C26.0938 15.2656 25.8438 15.2031 25.5313 15.3359C25.3906 15.3984 22.7031 17.0703 19.5625 19.0469L13.8516 22.6406L11.8672 22.0234C10.7734 21.6797 9.59376 21.3125 9.25001 21.2031C8.21095 20.8906 7.94532 20.4766 8.46876 20.0156C8.62501 19.8828 9.18751 19.6094 9.85157 19.3516C10.4688 19.1094 14.9297 17.3828 19.7656 15.5156C26.6328 12.8672 28.6328 12.1172 28.9219 12.1172C29.2266 12.1094 29.3203 12.1484 29.5234 12.3438Z" fill="url(#paint0_linear_111_45)"/>
</g>
<defs>
<linearGradient id="paint0_linear_111_45" x1="20.0051" y1="39.9981" x2="20.0051" y2="0.00968933" gradientUnits="userSpaceOnUse">
<stop offset="0.244792" stop-color="#23B55C"/>
<stop offset="1" stop-color="#5BBF9B"/>
</linearGradient>
<clipPath id="clip0_111_45">
<rect width="40" height="40" fill="white"/>
</clipPath>
</defs>
</svg>
