<svg width="41" height="41" viewBox="0 0 41 41" fill="none" xmlns="http://www.w3.org/2000/svg">
<g clip-path="url(#clip0_111_41)">
<path d="M17.8974 0.120121C14.1978 0.60059 10.8105 2.01797 7.84759 4.3082C6.91067 5.03691 5.31712 6.60645 4.54036 7.56739C2.3302 10.3061 0.864773 13.5412 0.240164 17.0646C0.0159451 18.3139 -0.0721409 21.3168 0.0719998 22.6861C0.72864 28.8201 4.11595 34.3375 9.32903 37.7408C11.9236 39.4305 14.8464 40.4955 18.0175 40.8879C19.2347 41.04 21.7972 41.032 23.0624 40.8799C32.3515 39.7268 39.7267 32.3516 40.8798 23.0625C41.04 21.7652 41.04 19.2348 40.8798 17.9375C40.1431 11.9797 36.8038 6.63848 31.7509 3.31524C29.1163 1.58555 26.1855 0.512501 23.0624 0.120121C21.8452 -0.0240211 19.0505 -0.0240211 17.8974 0.120121ZM23.2466 8.16797C28.796 9.24903 32.88 13.9736 33.1283 19.6191C33.2884 23.2227 31.9511 26.4898 29.2845 29.0363C25.697 32.4637 20.3318 33.3525 15.8474 31.2545L15.0786 30.8941L11.8835 31.735C10.1298 32.1914 8.6804 32.5598 8.66438 32.5518C8.64837 32.5438 9.02474 31.1344 9.48919 29.4287L10.346 26.3217L9.93763 25.4729C9.11282 23.7191 8.81653 22.4939 8.75247 20.54C8.72044 19.3949 8.73645 19.0266 8.87259 18.2178C9.81751 12.7084 14.2218 8.58438 19.8193 7.97578C20.532 7.90371 22.4058 7.99981 23.2466 8.16797Z" fill="url(#paint0_linear_111_41)"/>
<path d="M19.5551 10.0098C15.6793 10.5543 12.4602 13.2449 11.2109 16.9605C10.8746 17.9615 10.7305 18.9225 10.7305 20.1396C10.7305 22.1736 11.1869 23.8393 12.2199 25.5529L12.4842 25.9934L11.9717 27.8672C11.6914 28.9002 11.4672 29.749 11.4832 29.765C11.4912 29.773 12.3641 29.5568 13.4131 29.2846L15.327 28.7801L16.0717 29.1645C17.6973 30.0213 19.0826 30.3656 20.9404 30.3656C22.2617 30.3656 23.2867 30.2055 24.3598 29.8211C27.3947 28.732 29.733 26.2977 30.702 23.2227C31.0543 22.1096 31.1744 21.1727 31.1264 19.7793C31.0703 18.1457 30.798 17.0406 30.1174 15.6553C28.708 12.8205 26.2336 10.8666 23.1426 10.1619C22.3578 9.97773 20.3559 9.89766 19.5551 10.0098ZM17.6492 14.7504C17.8574 15.0627 18.8184 17.449 18.8184 17.6332C18.8184 17.7373 18.6021 18.1057 18.3379 18.458C18.0496 18.8424 17.8574 19.1787 17.8574 19.2988C17.8574 19.7953 19.2748 21.493 20.2918 22.2217C20.9084 22.6541 22.0055 23.2146 22.3658 23.2787C22.6141 23.3187 22.6621 23.2787 23.0305 22.8543C23.2547 22.59 23.551 22.2297 23.6951 22.0375C23.8633 21.8293 24.0234 21.7012 24.1275 21.7012C24.2236 21.7012 24.9203 22.0055 25.673 22.3738C26.65 22.8463 27.0664 23.0945 27.1064 23.2146C27.1625 23.4068 27.0424 24.1355 26.8822 24.5199C26.602 25.1926 25.4408 25.9133 24.4879 26.0014C23.8232 26.0574 23.1826 25.9373 22.1816 25.5689C21.1727 25.1926 20.2918 24.7521 19.5471 24.2396C18.7943 23.7271 17.0086 21.9654 16.368 21.1006C15.1828 19.491 14.7744 18.5301 14.7744 17.3369C14.7824 16.4961 14.9506 16.0076 15.4871 15.3029C15.9516 14.6863 16.1678 14.5742 16.9125 14.5742C17.465 14.5742 17.5451 14.5902 17.6492 14.7504Z" fill="url(#paint1_linear_111_41)"/>
</g>
<defs>
<linearGradient id="paint0_linear_111_41" x1="20.5008" y1="40.9981" x2="20.5008" y2="0.0120125" gradientUnits="userSpaceOnUse">
<stop offset="0.21875" stop-color="#23B55C"/>
<stop offset="1" stop-color="#5BBF9B"/>
</linearGradient>
<linearGradient id="paint1_linear_111_41" x1="20.9335" y1="30.3656" x2="20.9335" y2="9.95828" gradientUnits="userSpaceOnUse">
<stop offset="0.21875" stop-color="#23B55C"/>
<stop offset="1" stop-color="#5BBF9B"/>
</linearGradient>
<clipPath id="clip0_111_41">
<rect width="41" height="41" fill="white"/>
</clipPath>
</defs>
</svg>
